<svg width="16" height="14" viewBox="0 0 16 14" fill="none" xmlns="http://www.w3.org/2000/svg">
<path fill-rule="evenodd" clip-rule="evenodd" d="M9.07926 10.534C9.24423 10.3268 9.35594 9.96339 9.27063 9.66161C9.18673 9.36025 8.62111 8.94118 8.10781 9.16163C7.54407 9.41547 7.44273 9.95783 7.52522 10.3572C7.58178 10.6299 7.84762 10.8341 8.17474 10.8867C8.4665 10.9334 8.81295 10.8666 9.07926 10.534ZM8.41136 9.5623C8.61451 9.5623 8.7743 9.67488 8.81672 9.77975C8.86621 9.92743 8.83321 10.186 8.73093 10.3268C8.64609 10.4428 8.49761 10.4758 8.37412 10.4779C8.26807 10.4801 8.10545 10.4347 8.03522 10.3354C7.93152 10.186 7.96593 9.95012 8.04653 9.7789C8.0764 9.71372 8.12716 9.65822 8.19223 9.61959C8.25729 9.58096 8.33364 9.561 8.41136 9.5623Z" fill="#1A1A1A"/>
<path fill-rule="evenodd" clip-rule="evenodd" d="M11.6672 9.12768C11.4015 9.57431 10.7384 9.74512 10.2731 9.46058C10.1937 9.41055 10.1282 9.34433 10.0817 9.26719C10.0353 9.19004 10.0092 9.10408 10.0055 9.01614C9.9635 8.556 10.1622 8.18824 10.5468 7.91721C10.7857 7.75164 11.1025 7.78649 11.359 7.86885C11.5769 7.93857 11.7178 8.13029 11.7794 8.35905C11.8368 8.56733 11.7661 8.96167 11.6672 9.12768ZM11.3853 8.73552C11.4226 8.58824 11.3734 8.41831 11.3323 8.38084C11.2738 8.32426 11.2004 8.28224 11.1192 8.25875C11.0379 8.23527 10.9514 8.23109 10.8679 8.24663C10.7365 8.26667 10.6405 8.3682 10.5741 8.4645C10.4709 8.61526 10.4307 8.74642 10.4991 8.94162C10.5468 9.07234 10.6295 9.14511 10.7542 9.17126C10.9649 9.18476 11.0647 9.13335 11.1474 9.07583C11.2639 8.98836 11.3472 8.86869 11.3853 8.73552Z" fill="#1A1A1A"/>
<path fill-rule="evenodd" clip-rule="evenodd" d="M13.1652 6.60003C12.6723 6.60267 12.3123 7.00002 12.3004 7.56239C12.2934 7.77181 12.3705 7.97572 12.5156 8.13135C12.6608 8.28698 12.8626 8.38224 13.0787 8.39714C13.8689 8.44115 14.0919 7.97163 14.0965 7.41058C14.0965 7.08055 13.7961 6.5965 13.1652 6.60003ZM13.7078 7.50563C13.6873 7.78065 13.5576 8.05435 13.2107 8.05435H13.2089C12.9267 8.05303 12.7656 7.91926 12.7287 7.62708C12.7041 7.43126 12.777 7.27769 12.9108 7.12323C12.9804 7.05169 13.0729 7.00489 13.1734 6.99036C13.2739 6.97583 13.3765 6.99442 13.4647 7.04314C13.589 7.11355 13.7282 7.2306 13.7078 7.50563Z" fill="#1A1A1A"/>
<path fill-rule="evenodd" clip-rule="evenodd" d="M10.1565 0.686944C10.058 0.637677 9.94203 0.637677 9.8435 0.686944L0.8435 5.18694C0.724925 5.24623 0.650024 5.36742 0.650024 5.49999V11C0.650024 11.1372 0.730245 11.2618 0.855193 11.3186L6.35519 13.8186C6.45394 13.8635 6.56792 13.8601 6.66378 13.8093L15.1638 9.30932C15.2784 9.24866 15.35 9.12964 15.35 8.99999V3.49999C15.35 3.36742 15.2751 3.24623 15.1565 3.18694L10.1565 0.686944ZM1.35002 10.7746V6.04355L6.15002 8.22536V12.9564L1.35002 10.7746ZM6.85002 12.9187V8.21072L14.65 4.08131V8.78927L6.85002 12.9187ZM10 1.39131L14.2352 3.50889L6.48827 7.61019L1.81274 5.48495L10 1.39131Z" fill="#1A1A1A"/>
</svg>
