<svg xmlns="http://www.w3.org/2000/svg" viewBox="0 0 308.1 217.09"><defs><style>.cls-1{fill:#3a3a3a;}.cls-2,.cls-5{fill:#ff6058;}.cls-2,.cls-3,.cls-4{opacity:0.2;}.cls-3,.cls-6{fill:#ffbd2e;}.cls-4,.cls-7{fill:#28ca41;}</style></defs><title>资源 10</title><g id="图层_2" data-name="图层 2"><g id="svg_layout"><path id="boxFrame" class="cls-1" d="M307.87,71.68c.5-19.47,0-42.35,0-61.85,0-7.59-7.89-8.8-9.28-8.89-7.45-.48-6.17,0-13.63-.1C261.49.58,244.7.36,236.46.42c-17.84.13-27.25-1-55,0C167.81.91,158-.12,143.94.42c-11.74.45-36.31-.23-63.48,1-3.42.16-8.6.62-11.93,2.65A230.89,230.89,0,0,0,41.11,23.85c-6.85,6-13,10.4-18.89,15.23-3.92,3.24-7.79,7-12,10C6.89,51.5,1.83,56,.74,61.09A66,66,0,0,0,0,72.38c.44,18.16-.25,34.37.05,53.51.22,14.49.91,28.64,1,43.16.07,13.8-.68,24.71-1,40.19-.07,3.33,3.62,7.21,6.64,7.25,5.55.07,44.42.89,53.11.5,10.61-.47,53.43-.06,60.32,0,12.41.11,44.14,0,50.9,0,22.54.06,35.35-.48,51.8,0,2,0,13.94.44,20-1.16,5.4-1.43,15-14.81,18.72-19.27,6.81-8.27,16.78-21.77,22.32-28.73,3.41-4.3,9.89-13.26,17.6-22.47A27.62,27.62,0,0,0,307.87,128C307.87,110.94,307.43,88.76,307.87,71.68Zm-73.49,82.95c-.72,15.41-1.17,28.67-1.17,44.18,0,2.61-.81,2-29.09,2.35-22.6.28-41.47-.19-66.81,0-17,.14-41.78-.24-57.74,0-23.64.37-63.78-.07-63.82-1.15-.26-6.26,0-13.68,0-21.46-.09-16-.28-30.5,0-44.33.46-22.86,0-51.33,0-58.88,0-1.28.67-4.79,3.42-4.79,9.83,0,28.06-.7,40.43-.45,11.12.22,59.52.18,74.31,0,27.32-.32,36.21,1.19,63.48,0,9-.4,17.61,0,25.22,0,9.14,0,13.2.2,13.2,6.1C235.81,106.94,235.81,124.09,234.38,154.63ZM240.26,52.5c-4.94,1.76-36.07,2.92-54.13,3.5-11,.36-45.75.23-79,1-24.65.59-41.48-.47-66.17.1-8,.19-16.38.5-19.16-.4,8.87-8.07,15.63-12.81,26-22.33,2-1.88,10.79-8.48,16.43-12.82,12.76-9.81,14.59-9.72,28.94-9.72,19.2,0,39.36,1.15,55.51.64,19.22-.6,45.27,1.23,69.43.24,8.17-.33,60.27,0,67.65,0,10.77-.05,3.65,1.88-2.52,7-3.74,3.11-12.53,9.7-15.52,12.35C256.54,42,245.18,50.74,240.26,52.5Zm54.79,65.19c.09,5.1.5,13.18-5.18,20.44-4.45,5.68-11.89,15.53-18.14,22.88s-23.45,29.9-23.45,28c0-5.81.12-13.42.4-21.26.43-12,1.18-50.35,1.2-51.26.34-13.72.08-24.06,0-41.79,0-9.33,3-12.29,8.85-17.33,7.42-6.45,13.17-10.24,17.69-14.09,6.37-5.42,12.95-11.1,18.61-16.17,0,23.39-.71,30.36,0,54C295.43,93.59,294.84,105.1,295.05,117.69Z"/><path id="circle1" class="cls-2" d="M85,126.41c1.81,7.05-.56,15.54-4.06,20.38-5.65,7.77-13,9.33-19.19,8.24-6.94-1.23-12.58-6-13.78-12.37-1.75-9.33.4-22,12.36-27.93C71.26,109.58,83.18,119.37,85,126.41Z"/><path id="circle2" class="cls-3" d="M140.06,144.13c-5.56,10.25-19.44,14.17-29.18,7.64a13,13,0,0,1-5.6-10.2c-.88-10.56,3.28-19,11.33-25.22,5-3.8,11.63-3,17-1.11,4.56,1.6,7.52,6,8.8,11.25C143.61,131.27,142.13,140.32,140.06,144.13Z"/><path id="circle3" class="cls-4" d="M161.77,135.73c.26-12.78,8.17-21.81,19-21.87,13.86-.08,20.46,10.92,20.46,18.42-.1,12.75-5,23.42-22.36,22.42A18.42,18.42,0,0,1,161.77,135.73Z"/><path id="circle1-2" data-name="circle1" class="cls-5" d="M84.78,126.41c1.81,7.05-.56,15.54-4.06,20.38-5.65,7.77-13,9.33-19.19,8.24-6.94-1.23-12.58-6-13.78-12.37-1.75-9.33.4-22,12.36-27.93C71,109.58,83,119.37,84.78,126.41Zm-9.63,2.76c-.9-2.45-4.29-5.08-8.6-5.08a8.22,8.22,0,0,0-7.74,5.06c-1.71,4-2.44,9.51-.24,13,1.49,2.32,4.94,3.38,7.19,3.33,2.62-.05,5.77-.82,7.57-3.53C75.5,138.66,76.2,132.62,75.15,129.17Z"/><path id="circle2-2" data-name="circle2" class="cls-6" d="M139.84,144.13c-5.56,10.25-19.44,14.17-29.18,7.64a13,13,0,0,1-5.6-10.2c-.88-10.56,3.28-19,11.33-25.22,5-3.8,11.63-3,17-1.11,4.56,1.6,7.51,6,8.8,11.25C143.39,131.27,141.91,140.32,139.84,144.13Zm-5.9-9c.78-3.38-.25-7.28-1.11-8.14a10.48,10.48,0,0,0-9.72-3.08c-2.75.46-4.76,2.79-6.15,5-2.16,3.46-3,6.47-1.57,10.95,1,3,2.73,4.67,5.34,5.27,4.41.31,6.5-.87,8.23-2.19A15,15,0,0,0,133.94,135.15Z"/><path id="circle3-2" data-name="circle3" class="cls-7" d="M161.55,135.73c.26-12.78,8.17-21.81,19-21.87,13.86-.08,20.46,10.92,20.46,18.42-.1,12.75-5,23.42-22.36,22.42A18.42,18.42,0,0,1,161.55,135.73Zm20,11.18c7.62,0,10.47-6.22,10.92-12.47s-2.61-8.91-5.34-10.51a9.94,9.94,0,0,0-12.17,1.82c-2.94,3.51-4.54,7-4,11.45C171.77,143.84,175.31,146.88,181.51,146.91Z"/></g></g></svg>